<svg xmlns="http://www.w3.org/2000/svg" width="160" height="160" fill="none" viewBox="0 0 160 160">
  <g class="fav 1">
    <path fill="#000" d="M0 0h160v160H0z"/>
    <g class="Group 2">
      <path fill="#fff" d="M32.44 141.756a2.441 2.441 0 0 1-2.44-2.44v-6.793c0-.566.195-1.113.547-1.542l83.33-101.308H32.44a2.44 2.44 0 0 1-2.44-2.44V20.44A2.44 2.44 0 0 1 32.44 18h95.101a2.44 2.44 0 0 1 2.439 2.44v6.793a2.44 2.44 0 0 1-.546 1.542l-83.33 101.308h81.456a2.44 2.44 0 0 1 2.44 2.44v6.793a2.441 2.441 0 0 1-2.44 2.44H32.44Z" class="Vector"/>
      <path fill="#fff" d="M127.56 139.335H32.44v-6.793l86.609-105.29h-86.61V20.46h95.101v6.793l-86.609 105.29h86.609v6.793h.02Z" class="Vector"/>
    </g>
  </g>
</svg>
