<svg xmlns="http://www.w3.org/2000/svg" width="40" height="40" fill="none" viewBox="0 0 40 40">
  <g class="iconmonstr-behance-1 1" clip-path="url(#a)">
    <path fill="#fff" d="M36.667 11.667H25V8.334h11.667v3.333Zm2.876 16.666c-.736 2.162-3.381 5-8.501 5-5.124 0-9.274-2.881-9.274-9.458 0-6.517 3.875-9.867 9.11-9.867 5.137 0 8.274 2.97 8.959 7.377.13.843.181 1.98.158 3.567H26.617c.216 5.351 5.805 5.52 7.646 3.381h5.28Zm-12.81-6.666h8.275c-.175-2.579-1.893-3.699-4.128-3.699-2.443 0-3.795 1.28-4.147 3.699ZM10.777 33.313H0V8.368h11.588c9.127.136 9.3 9.074 4.534 11.51 5.768 2.1 5.961 13.435-5.345 13.435ZM5 18.333h5.973c4.18 0 4.844-5-.52-5H5v5Zm5.652 5H5v5.027h5.568c5.092 0 4.78-5.026.084-5.026Z" class="Vector"/>
  </g>
  <defs>
    <clipPath id="a" class="a">
      <path fill="#fff" d="M0 0h40v40H0z"/>
    </clipPath>
  </defs>
</svg>
