<svg xmlns="http://www.w3.org/2000/svg" width="40" height="40" fill="none" viewBox="0 0 40 40">
  <g class="blog" clip-path="url(#a)">
    <path fill="#fff" fill-rule="evenodd" d="M20 0c11.038 0 20 8.962 20 20s-8.962 20-20 20S0 31.038 0 20 8.962 0 20 0Zm4.262 26.667h-8.525c.91 4.1 2.401 6.856 4.263 9.573 1.99-2.902 3.402-5.683 4.262-9.573Zm-11.929 0H4.722c2.06 4.708 6.173 8.286 11.258 9.526-1.747-2.888-2.972-6.096-3.647-9.526Zm22.945 0h-7.611a29.363 29.363 0 0 1-3.625 9.49c5.02-1.272 9.195-4.825 11.236-9.49Zm-23.341-10h-8.27a16.812 16.812 0 0 0 0 6.666h8.191a33.38 33.38 0 0 1 .079-6.666Zm12.768 0h-9.412a30.026 30.026 0 0 0-.088 6.666h9.588a30.028 30.028 0 0 0-.088-6.666Zm11.628 0h-8.271a33.6 33.6 0 0 1 .08 6.666h8.191a16.84 16.84 0 0 0 0-6.666ZM16.073 3.785c-5.128 1.22-9.278 4.81-11.351 9.548h7.755a34.042 34.042 0 0 1 3.596-9.548Zm3.925-.08c-1.815 2.95-3.183 5.755-4.105 9.628h8.212c-.89-3.743-2.228-6.58-4.107-9.628Zm3.947.115a34.087 34.087 0 0 1 3.577 9.513h7.756C33.225 8.64 29.008 5.07 23.945 3.82Z" class="Vector" clip-rule="evenodd" opacity="1"/>
  </g>
  <defs>
    <clipPath id="a" class="a">
      <path fill="#fff" d="M0 0h40v40H0z"/>
    </clipPath>
  </defs>
</svg>
