<svg xmlns="http://www.w3.org/2000/svg" width="40" height="40" fill="none" viewBox="0 0 40 40">
  <g class="dribbble" clip-path="url(#a)">
    <path fill="#fff" d="M20 0C8.953 0 0 8.955 0 20s8.953 20 20 20 20-8.955 20-20S31.047 0 20 0Zm16.475 19.068c-4.292-.703-8.238-.741-11.838-.121a70.26 70.26 0 0 0-1.279-2.8c3.85-1.667 6.942-3.93 9.247-6.804a16.438 16.438 0 0 1 3.87 9.725ZM30.072 6.932c-2.009 2.59-4.78 4.638-8.31 6.133a77.144 77.144 0 0 0-5.814-9.063A16.49 16.49 0 0 1 20 3.478c3.792 0 7.28 1.299 10.072 3.454ZM12.545 5.277a74.319 74.319 0 0 1 5.895 8.968c-4.05 1.192-8.885 1.803-14.473 1.842a16.552 16.552 0 0 1 8.578-10.81ZM3.478 20l.022-.427c6.415-.008 11.948-.746 16.583-2.203.389.792.76 1.587 1.117 2.387-5.633 1.761-10.275 5.37-13.895 10.8A16.442 16.442 0 0 1 3.478 20ZM9.86 33.017c3.282-5.147 7.47-8.497 12.663-10.045a65.222 65.222 0 0 1 3.405 12.433c-5.581 2.152-11.588 1.11-16.068-2.388Zm19.31.716a68.498 68.498 0 0 0-3.2-11.495c3.127-.441 6.567-.326 10.332.327a16.538 16.538 0 0 1-7.132 11.168Z" class="Vector" opacity=".75"/>
  </g>
  <defs>
    <clipPath id="a" class="a">
      <path fill="#fff" d="M0 0h40v40H0z"/>
    </clipPath>
  </defs>
</svg>
