<svg xmlns="http://www.w3.org/2000/svg" width="40" height="40" fill="none" viewBox="0 0 40 40">
  <g class="insta" clip-path="url(#a)">
    <path fill="#fff" d="M20 3.605c5.34 0 5.973.02 8.083.117 5.42.246 7.952 2.818 8.199 8.198.096 2.108.115 2.742.115 8.082 0 5.341-.02 5.973-.115 8.081-.249 5.375-2.774 7.952-8.199 8.199-2.11.096-2.74.116-8.083.116-5.34 0-5.973-.02-8.082-.116-5.433-.249-7.951-2.832-8.198-8.2-.097-2.109-.117-2.74-.117-8.082 0-5.34.022-5.972.117-8.082.248-5.378 2.773-7.951 8.198-8.198 2.11-.095 2.742-.115 8.082-.115ZM20 0c-5.432 0-6.112.023-8.245.12C4.492.453.455 4.483.122 11.753.023 13.888 0 14.568 0 20s.023 6.113.12 8.247c.333 7.263 4.363 11.3 11.633 11.633 2.135.097 2.815.12 8.247.12s6.113-.023 8.247-.12c7.256-.333 11.303-4.363 11.631-11.633.099-2.134.122-2.815.122-8.247s-.023-6.112-.12-8.245C39.553 4.498 35.518.455 28.248.122 26.113.023 25.432 0 20 0Zm0 9.73C14.328 9.73 9.73 14.328 9.73 20S14.328 30.272 20 30.272 30.27 25.673 30.27 20c0-5.672-4.598-10.27-10.27-10.27Zm0 16.937a6.667 6.667 0 1 1 0-13.333 6.667 6.667 0 0 1 0 13.333ZM30.677 6.925a2.401 2.401 0 1 0-.002 4.802 2.401 2.401 0 0 0 .002-4.802Z" class="Vector" opacity="1"/>
  </g>
  <defs>
    <clipPath id="a" class="a">
      <path fill="#fff" d="M0 0h40v40H0z"/>
    </clipPath>
  </defs>
</svg>
