<svg xmlns="http://www.w3.org/2000/svg" width="146" height="80" fill="none" viewBox="0 0 146 80">
  <g class="logo">
    <path fill="#fff" d="M59.817 39.69v.624c0 1.337 1.124 2.422 2.512 2.422h34.737c1.387 0 2.511-1.085 2.511-2.422v-.624c0-1.337-1.124-2.422-2.511-2.422H62.329c-1.388 0-2.512 1.085-2.512 2.422ZM2.512 0C1.124 0 0 1.085 0 2.421v5.483c0 1.336 1.124 2.421 2.512 2.421h.648c1.388 0 2.512-1.085 2.512-2.42v.003c0-1.344 1.136-2.433 2.527-2.421l.318.004h.955v-.008h126.839v.004l1.293.004c1.384.004 2.504 1.085 2.504 2.421 0 1.336 1.124 2.421 2.512 2.421h.648c1.388 0 2.512-1.085 2.512-2.421V2.425c0-1.336-1.124-2.421-2.512-2.421H2.512V0Zm137.592 72.096c0 1.336-1.12 2.417-2.504 2.421h-.349l-.727.008H9.468v-.012l-1.27.008c-1.39.008-2.526-1.077-2.526-2.421v-.004c0-1.336-1.124-2.421-2.512-2.421h-.648C1.124 69.675 0 70.76 0 72.096v5.483C0 78.915 1.124 80 2.512 80H143.26c1.388 0 2.512-1.085 2.512-2.421v-5.487c0-1.336-1.124-2.421-2.512-2.421h-.648c-1.384.004-2.508 1.085-2.508 2.425Zm4.394-25.112-8.937-4.873a2.383 2.383 0 0 1 0-4.218l8.937-4.873a2.406 2.406 0 0 0 1.274-2.107v-.755c0-1.855-2.071-3.018-3.746-2.107l-18.052 9.846a2.382 2.382 0 0 0 0 4.218l14.857 8.1a2.407 2.407 0 0 1 1.273 2.107v6.017c0 1.337 1.124 2.422 2.512 2.422h.648c1.388 0 2.512-1.085 2.512-2.422v-7.73h-.039c0-2.603-.861-3.42-1.239-3.625ZM29.388 20.265 2.768 56.948c-1.164 1.604.023 3.809 2.055 3.809h.79c.817 0 1.588-.386 2.055-1.034L34.29 23.04c1.163-1.603-.023-3.808-2.056-3.808h-.79a2.54 2.54 0 0 0-2.055 1.033Z" class="Vector"/>
  </g>
</svg>
