<svg xmlns="http://www.w3.org/2000/svg" width="101" height="100" fill="none" viewBox="0 0 101 100">
  <g class="star">
    <path fill="#4D59CC" d="M50.5 100c3.258 0 5.928-2.398 6.38-5.792 4.48-30.226 8.597-34.434 37.647-37.737 3.349-.407 5.928-3.213 5.928-6.47 0-3.304-2.534-6.019-5.883-6.517C65.704 39.457 62.13 35.928 56.88 5.747 56.292 2.398 53.713 0 50.5 0c-3.303 0-5.928 2.398-6.47 5.792-4.39 30.181-8.507 34.39-37.512 37.692C3.08 43.937.545 46.652.545 50c0 3.258 2.444 5.973 5.883 6.47C35.34 60.589 38.87 64.073 44.03 94.255c.678 3.393 3.303 5.746 6.47 5.746Z" class="Vector"/>
  </g>
</svg>
